<svg xmlns="http://www.w3.org/2000/svg" viewBox="-173 2837 24 24">
  <defs>
    <style>
      .cls-1 {
        fill: #a0e4b5;
        fill-rule: evenodd;
      }
    </style>
  </defs>
  <g id="codepen" transform="translate(-173.393 2837)">
    <g id="Group" transform="translate(0.393 0)">
      <g id="_0485-codepen-copy" data-name="0485-codepen-copy" transform="translate(0)">
        <path id="Shape" class="cls-1" d="M24.037,7.6,12.837.134a.8.8,0,0,0-.888,0L.749,7.6a.8.8,0,0,0-.356.666v7.467a.8.8,0,0,0,.356.666l11.2,7.467a.8.8,0,0,0,.887,0l11.2-7.467a.8.8,0,0,0,.356-.666V8.267a.8.8,0,0,0-.356-.666ZM12.393,14.772,8.235,12l4.158-2.772L16.551,12l-4.158,2.772Zm.8-6.934V2.295l8.958,5.972-4.158,2.772-4.8-3.2Zm-1.6,0-4.8,3.2L2.635,8.266l8.958-5.972V7.838ZM5.351,12,1.993,14.238V9.761L5.351,12Zm1.442.962,4.8,3.2v5.544L2.635,15.733l4.158-2.772Zm6.4,3.2,4.8-3.2,4.158,2.772-8.958,5.972V16.162ZM19.435,12l3.358-2.238v4.477L19.435,12Z" transform="translate(-0.393 0)"/>
      </g>
    </g>
  </g>
</svg>
