<?xml version="1.0" encoding="utf-8"?>
<!-- Generator: Adobe Illustrator 21.0.0, SVG Export Plug-In . SVG Version: 6.00 Build 0)  -->
<svg version="1.1" id="Calque_1" xmlns="http://www.w3.org/2000/svg" xmlns:xlink="http://www.w3.org/1999/xlink" x="0px" y="0px"
	 viewBox="0 0 55.2 37.7" style="enable-background:new 0 0 55.2 37.7;" xml:space="preserve">
<style type="text/css">
	.st0{fill:#A0E4B5;}
</style>
<path class="st0" d="M27.6,11.3c-4.2,0-7.5,3.4-7.5,7.5s3.4,7.5,7.5,7.5s7.5-3.4,7.5-7.5S31.8,11.3,27.6,11.3z M27.6,31.4
	c-6.9,0-12.6-5.6-12.6-12.6S20.7,6.3,27.6,6.3s12.6,5.6,12.6,12.6S34.5,31.4,27.6,31.4z M27.6,0C15.1,0,4.3,7.8,0,18.8
	c4.3,11,15.1,18.8,27.6,18.8s23.3-7.8,27.6-18.8C50.9,7.8,40.2,0,27.6,0z"/>
</svg>
