<svg version="1.1" id="Calque_1" xmlns="http://www.w3.org/2000/svg" xmlns:xlink="http://www.w3.org/1999/xlink" x="0px" y="0px"
	 viewbox="0 0 211.9 53.2" style="enable-background:new 0 0 211.9 53.2;" xml:space="preserve">
<style type="text/css">
	.st0{fill:none;stroke:#fff;stroke-miterlimit:10;}
	.st1{fill:#fff;}
	.st2{display:none;}
</style>
<g>
	<g>
		<g>
			<g>
				<g>
					<path class="st0" d="M77.3,34.6l86.7-12c1.4-0.2,2.7,0.2,3.7,1.1c3.6,3.2,12.6,10.6,17.9,9.6c6.8-1.4,26.2-5.5,26.2-5.5"/>
				</g>
				<g>
					<path class="st0" d="M77.8,34.7l86.3-12.4c1.5-0.2,2.8-1.1,3.5-2.5c2.2-4.5,7.8-14.8,13.1-15.2c6.9-0.6,23.9-4.1,23.9-4.1"/>
				</g>
			</g>
			<line class="st0" x1="165.7" y1="22.2" x2="205.7" y2="14.6"/>
		</g>
		<g>
			<path class="st1" d="M21,10.8l-5.3,10.7c0.9-1.2,1.9-2.3,3-3.4c1-1,2.1-1.9,3.2-2.5c0.8-0.5,1.5-0.8,2.1-1
				c0.6-0.2,1.2-0.3,1.7-0.3c0.5,0,1,0.1,1.3,0.3c0.3,0.2,0.6,0.4,0.8,0.7c0.2,0.3,0.3,0.6,0.4,0.9c0.1,0.3,0.1,0.7,0.1,1
				c0,0.7-0.1,1.5-0.4,2.2c-0.3,0.7-0.6,1.4-0.9,2.1c-0.4,0.7-0.8,1.4-1.2,2.1c-0.4,0.7-0.8,1.3-1.2,2c-0.4,0.6-0.7,1.3-0.9,1.9
				c-0.3,0.6-0.4,1.2-0.4,1.8c0,0.3,0,0.5,0.1,0.7c0.1,0.2,0.2,0.3,0.3,0.4c0.1,0.1,0.2,0.2,0.4,0.2s0.3,0,0.4,0
				c0.3,0,0.6-0.1,1-0.4c0.4-0.3,0.8-0.6,1.3-1.1c0.5-0.4,0.9-1,1.4-1.5c0.5-0.6,0.9-1.2,1.4-1.8c0.4-0.6,0.9-1.2,1.3-1.8
				c0.4-0.6,0.7-1.1,1-1.6l0.9,0.7c-0.2,0.3-0.4,0.8-0.8,1.4c-0.3,0.6-0.7,1.2-1.2,1.8c-0.5,0.6-1,1.3-1.5,1.9s-1.1,1.2-1.7,1.8
				c-0.6,0.5-1.2,1-1.8,1.3c-0.6,0.3-1.2,0.5-1.8,0.5c-0.4,0-0.8-0.1-1.2-0.2c-0.4-0.1-0.7-0.3-1-0.6c-0.3-0.3-0.5-0.6-0.7-1
				c-0.2-0.4-0.3-0.9-0.3-1.5c0-0.7,0.1-1.4,0.4-2.3s0.8-1.9,1.6-3c0.6-0.9,1.2-1.7,1.7-2.3c0.5-0.6,0.9-1.2,1.2-1.6
				c0.3-0.5,0.5-0.9,0.7-1.3s0.2-0.8,0.2-1.3c0-0.4-0.1-0.7-0.4-0.9c-0.2-0.2-0.5-0.3-0.8-0.3c-0.8,0-1.6,0.2-2.5,0.7
				c-0.8,0.5-1.7,1-2.5,1.8c-0.8,0.7-1.6,1.6-2.4,2.5s-1.6,1.9-2.3,2.9c-0.7,1-1.4,2-2,2.9c-0.6,1-1.1,1.8-1.6,2.6
				c-0.4,0.8-0.8,1.4-1,1.8s-0.4,0.7-0.4,0.7c-0.7,1.3-1.3,2.6-1.9,3.9c-0.6,1.3-1.2,2.4-1.8,3.6c-0.6,1.1-1.1,2.2-1.5,3.1
				c-0.5,0.9-0.9,1.7-1.2,2.4c-0.3,0.7-0.6,1.2-0.8,1.6c-0.2,0.4-0.3,0.6-0.3,0.6l-2.6-1.5c1.3-2.4,2.4-4.6,3.5-6.6c1-2,2-3.8,3-5.5
				c0.9-1.7,1.9-3.4,2.8-5c0.9-1.6,1.9-3.3,2.9-5.1c1-1.8,2.1-3.7,3.3-5.7s2.6-4.3,4.1-6.9L21,10.8z"/>
			<path class="st1" d="M50.5,15.7c-0.2,0.4-0.5,0.9-0.9,1.6s-0.8,1.4-1.2,2.2c-0.4,0.8-0.8,1.6-1.3,2.5c-0.4,0.9-0.8,1.7-1.2,2.5
				c-0.4,0.8-0.6,1.6-0.9,2.3c-0.2,0.7-0.3,1.3-0.3,1.8s0.1,0.8,0.3,1c0.2,0.1,0.4,0.2,0.8,0.2c0.5,0,0.9-0.1,1.4-0.4
				c0.5-0.3,0.9-0.6,1.4-1s0.9-0.9,1.3-1.4c0.4-0.5,0.8-1.1,1.2-1.6c0.4-0.5,0.7-1.1,1-1.5c0.3-0.5,0.6-0.9,0.8-1.3l0.8,0.7
				c-0.3,0.5-0.6,1-0.9,1.6c-0.4,0.6-0.8,1.2-1.2,1.7c-0.4,0.6-0.9,1.2-1.4,1.7c-0.5,0.5-1,1-1.6,1.5c-0.6,0.4-1.1,0.8-1.7,1
				c-0.6,0.2-1.2,0.4-1.9,0.4c-0.9,0-1.6-0.3-2.1-0.8c-0.4-0.6-0.7-1.3-0.7-2.2c0-0.1,0-0.2,0-0.4c0-0.2,0-0.4,0.1-0.5
				c-0.8,1-1.5,1.8-2.2,2.4c-0.7,0.6-1.4,1.1-2.1,1.5c-0.7,0.4-1.3,0.6-1.9,0.8c-0.6,0.1-1.2,0.2-1.8,0.2c-0.6,0-1.2-0.1-1.7-0.3
				c-0.5-0.2-1-0.5-1.4-0.9c-0.4-0.4-0.7-0.8-0.9-1.4s-0.3-1.2-0.3-1.9c0-0.9,0.2-1.9,0.6-3.1c0.4-1.1,1.1-2.4,2.1-3.7
				c0.9-1.1,1.8-2.1,2.7-2.9c0.9-0.8,1.8-1.4,2.7-1.9c0.9-0.5,1.8-0.8,2.6-1c0.8-0.2,1.5-0.3,2.2-0.3c1.4,0,2.5,0.2,3.3,0.7
				c0.7,0.5,1.2,1.2,1.3,2.2c0.3-0.4,0.6-0.8,1-1.2c0.3-0.4,0.7-0.8,1.1-1.2L50.5,15.7z M43.3,24.6c0.2-0.3,0.5-0.7,0.8-1.3
				c0.3-0.5,0.6-1,0.9-1.6c0.3-0.5,0.6-1.1,1-1.6c0.3-0.5,0.6-0.9,0.8-1.3c0-0.1,0-0.4-0.1-0.7s-0.1-0.6-0.3-0.9
				c-0.2-0.3-0.4-0.6-0.8-0.8c-0.4-0.2-0.9-0.4-1.6-0.4c-0.5,0-1,0.1-1.6,0.2c-0.6,0.1-1.2,0.4-1.9,0.7c-0.7,0.4-1.4,0.8-2.1,1.4
				c-0.7,0.6-1.4,1.3-2.2,2.2c-1.1,1.3-1.9,2.6-2.5,3.9c-0.6,1.3-0.9,2.5-0.9,3.5c0,0.9,0.2,1.6,0.6,2.1s1,0.7,1.7,0.7
				c0.9,0,1.7-0.2,2.4-0.6c0.8-0.4,1.5-0.9,2.1-1.5c0.7-0.6,1.3-1.3,1.9-2C42.2,26,42.7,25.3,43.3,24.6z"/>
			<path class="st1" d="M63.5,26.1c-0.6,0.7-1.2,1.3-1.9,1.9c-0.6,0.6-1.2,1.1-1.9,1.5s-1.2,0.8-1.8,1c-0.6,0.2-1.2,0.4-1.7,0.4
				c-0.6,0-1.2-0.1-1.7-0.3c-0.5-0.2-0.9-0.6-1.3-1c-0.4-0.4-0.6-0.9-0.8-1.5s-0.3-1.2-0.3-1.9c0-0.9,0.2-1.9,0.6-2.9
				c0.4-1,0.9-2,1.5-3c0.6-1,1.3-1.9,2.1-2.7c0.8-0.9,1.5-1.6,2.2-2.2l1,0.7c-0.2,0.3-0.4,0.6-0.8,1.1c-0.3,0.5-0.7,1-1.1,1.6
				c-0.4,0.6-0.8,1.3-1.1,2c-0.4,0.7-0.7,1.5-1,2.2s-0.6,1.5-0.8,2.2c-0.2,0.8-0.3,1.5-0.3,2.1c0,0.3,0,0.6,0.1,0.9
				c0.1,0.3,0.1,0.5,0.3,0.8c0.1,0.2,0.3,0.4,0.5,0.5c0.2,0.1,0.5,0.2,0.8,0.2c0.5,0,1.1-0.2,1.8-0.5c0.6-0.3,1.3-0.8,2-1.4
				c0.7-0.6,1.4-1.3,2.1-2c0.7-0.8,1.4-1.6,2.1-2.5c0.7-0.9,1.4-1.8,2-2.8c0.7-0.9,1.3-1.9,1.8-2.8c0.5-0.8,1-1.7,1.5-2.5
				c0.5-0.8,1-1.7,1.5-2.4l1.1,0.6c0,0-0.2,0.3-0.4,0.9c-0.3,0.6-0.6,1.3-1.1,2.2c-0.5,0.9-1,2-1.6,3.3c-0.6,1.2-1.2,2.6-1.9,4
				c-0.7,1.4-1.4,2.8-2.1,4.3c-0.7,1.5-1.4,2.9-2,4.3c2.2-1.2,4.2-2.7,6-4.3c1.8-1.7,3.3-3.4,4.6-5.2l0.9,0.7
				c-1.4,2.1-3.1,4-5.1,5.7s-4.4,3.4-7.3,5c-1.3,2.8-2.6,5.3-3.8,7.6c-1.2,2.3-2.5,4.3-3.7,5.9c-1.2,1.6-2.5,2.9-3.7,3.8
				c-1.2,0.9-2.5,1.3-3.8,1.3c-0.8,0-1.5-0.3-2.1-0.8c-0.6-0.6-0.8-1.4-0.8-2.4c0-0.9,0.2-1.8,0.6-2.7c0.4-0.9,0.9-1.8,1.6-2.8
				c0.7-0.9,1.5-1.9,2.5-2.8s2-1.8,3.1-2.6c1.1-0.8,2.3-1.6,3.5-2.4c1.2-0.8,2.5-1.5,3.7-2.1c0.3-0.7,0.7-1.4,1.1-2.2
				c0.4-0.8,0.7-1.5,1.1-2.2c0.4-0.7,0.7-1.4,1-2C62.9,27,63.2,26.5,63.5,26.1z M58.3,36.3c-1.8,1.1-3.5,2.3-5,3.5
				c-1.5,1.3-2.9,2.5-4,3.7c-1.1,1.2-2,2.4-2.7,3.5c-0.6,1.1-1,2-1,2.7c0,0.5,0.1,0.9,0.4,1.2c0.3,0.3,0.7,0.4,1.1,0.4
				c0.6,0,1.2-0.2,1.9-0.6c0.6-0.4,1.3-1,1.9-1.7c0.6-0.7,1.3-1.6,1.9-2.5c0.6-1,1.3-2,1.9-3.1c0.6-1.1,1.2-2.3,1.8-3.5
				C57.2,38.7,57.8,37.5,58.3,36.3z"/>
			<path class="st1" d="M81.1,13.4c-0.1,0.2-0.2,0.4-0.4,0.6c-0.1,0.2-0.2,0.5-0.3,0.7s-0.1,0.6-0.1,1c0,0.3,0.1,0.8,0.2,1.3
				c0.2,0.6,0.3,1.2,0.5,1.9s0.4,1.5,0.5,2.4c0.2,0.9,0.2,1.7,0.2,2.6c0,1.3-0.2,2.5-0.5,3.5s-0.8,1.9-1.4,2.6
				c1.2-0.7,2.4-1.6,3.6-2.8c1.2-1.2,2.4-2.8,3.5-4.7l0.8,0.7c-0.7,1.1-1.4,2.2-2.3,3.3s-1.8,2.1-2.8,2.9c-1,0.9-2.1,1.6-3.3,2.1
				c-1.2,0.5-2.4,0.8-3.7,0.8c-1.2,0-2.2-0.3-3-0.8c-0.8-0.6-1.3-1.4-1.5-2.5l0.8-0.2c0,0.1,0,0.2,0.1,0.5c0.1,0.2,0.2,0.4,0.4,0.6
				c0.2,0.2,0.4,0.4,0.8,0.5c0.3,0.2,0.7,0.2,1.2,0.2c0.6,0,1.2-0.1,1.7-0.4c0.5-0.3,0.9-0.7,1.3-1.1c0.4-0.5,0.7-1,0.9-1.6
				c0.3-0.6,0.5-1.2,0.6-1.9c0.1-0.6,0.3-1.3,0.3-1.9s0.1-1.2,0.1-1.7c0-0.5,0-1.1-0.1-1.7c0-0.6-0.1-1.2-0.1-1.7s-0.1-1-0.1-1.5
				c0-0.4-0.1-0.7-0.1-0.8v0c-0.2,0.2-0.4,0.5-0.7,1c-0.3,0.4-0.6,0.9-0.9,1.4c-0.3,0.5-0.6,1-1,1.5c-0.3,0.5-0.6,1-0.9,1.4
				c-0.3,0.4-0.5,0.8-0.6,1s-0.2,0.4-0.2,0.4l-0.8-0.7c0,0,0.2-0.4,0.6-1c0.4-0.7,0.9-1.5,1.5-2.5c0.6-1,1.3-2.1,2.1-3.3
				s1.6-2.4,2.4-3.6l0.9,0.8C81.3,13,81.2,13.2,81.1,13.4z"/>
			<path class="st1" d="M105.6,15.7c-0.2,0.4-0.5,0.9-0.9,1.6c-0.4,0.7-0.8,1.4-1.2,2.2c-0.4,0.8-0.8,1.6-1.3,2.5
				c-0.4,0.9-0.8,1.7-1.2,2.5c-0.4,0.8-0.6,1.6-0.9,2.3s-0.3,1.3-0.3,1.8c0,0.5,0.1,0.8,0.3,1c0.2,0.1,0.4,0.2,0.8,0.2
				c0.5,0,0.9-0.1,1.4-0.4c0.5-0.3,0.9-0.6,1.4-1c0.5-0.4,0.9-0.9,1.3-1.4c0.4-0.5,0.8-1.1,1.2-1.6c0.4-0.5,0.7-1.1,1-1.5
				c0.3-0.5,0.6-0.9,0.8-1.3l0.8,0.7c-0.3,0.5-0.6,1-0.9,1.6c-0.4,0.6-0.8,1.2-1.2,1.7c-0.4,0.6-0.9,1.2-1.4,1.7
				c-0.5,0.5-1,1-1.6,1.5c-0.6,0.4-1.1,0.8-1.7,1c-0.6,0.2-1.2,0.4-1.9,0.4c-0.9,0-1.6-0.3-2.1-0.8c-0.4-0.6-0.7-1.3-0.7-2.2
				c0-0.1,0-0.2,0-0.4s0-0.4,0.1-0.5c-0.8,1-1.5,1.8-2.2,2.4c-0.7,0.6-1.4,1.1-2.1,1.5c-0.7,0.4-1.3,0.6-1.9,0.8
				c-0.6,0.1-1.2,0.2-1.8,0.2c-0.6,0-1.2-0.1-1.7-0.3c-0.5-0.2-1-0.5-1.4-0.9c-0.4-0.4-0.7-0.8-0.9-1.4c-0.2-0.5-0.3-1.2-0.3-1.9
				c0-0.9,0.2-1.9,0.6-3.1c0.4-1.1,1.1-2.4,2.1-3.7c0.9-1.1,1.8-2.1,2.7-2.9c0.9-0.8,1.8-1.4,2.7-1.9c0.9-0.5,1.8-0.8,2.6-1
				c0.8-0.2,1.5-0.3,2.2-0.3c1.4,0,2.5,0.2,3.3,0.7c0.7,0.5,1.2,1.2,1.3,2.2c0.3-0.4,0.6-0.8,1-1.2c0.3-0.4,0.7-0.8,1.1-1.2
				L105.6,15.7z M98.4,24.6c0.2-0.3,0.5-0.7,0.8-1.3c0.3-0.5,0.6-1,0.9-1.6c0.3-0.5,0.6-1.1,1-1.6c0.3-0.5,0.6-0.9,0.8-1.3
				c0-0.1,0-0.4-0.1-0.7c0-0.3-0.1-0.6-0.3-0.9c-0.2-0.3-0.4-0.6-0.8-0.8c-0.4-0.2-0.9-0.4-1.6-0.4c-0.5,0-1,0.1-1.6,0.2
				c-0.6,0.1-1.2,0.4-1.9,0.7c-0.7,0.4-1.4,0.8-2.1,1.4c-0.7,0.6-1.4,1.3-2.2,2.2c-1.1,1.3-1.9,2.6-2.5,3.9
				c-0.6,1.3-0.9,2.5-0.9,3.5c0,0.9,0.2,1.6,0.6,2.1c0.4,0.5,1,0.7,1.7,0.7c0.9,0,1.7-0.2,2.4-0.6c0.8-0.4,1.5-0.9,2.1-1.5
				c0.7-0.6,1.3-1.3,1.9-2C97.3,26.1,97.9,25.4,98.4,24.6z"/>
			<path class="st1" d="M117.1,30.5c-0.8,0.5-1.7,1-2.5,1.3c-0.9,0.3-1.7,0.5-2.5,0.5c-0.6,0-1.2-0.1-1.8-0.3
				c-0.6-0.2-1.1-0.5-1.6-0.9c-0.5-0.4-0.9-0.9-1.2-1.6c-0.3-0.7-0.5-1.5-0.5-2.4c0-1.2,0.2-2.3,0.6-3.4s1-2.1,1.7-3
				c0.7-0.9,1.5-1.8,2.4-2.5c0.9-0.8,1.8-1.4,2.8-2c1-0.5,1.9-1,2.9-1.3c1-0.3,1.8-0.4,2.6-0.4c0.8,0,1.4,0.1,2,0.2
				c0.5,0.2,1,0.4,1.4,0.6c0.4,0.2,0.7,0.5,0.9,0.8c0.2,0.3,0.4,0.5,0.5,0.8l1.3-1.7l0.8,0.5c0,0-0.1,0.3-0.4,0.7
				c-0.2,0.5-0.6,1.1-1,1.9c-0.4,0.8-0.9,1.7-1.4,2.8c-0.5,1.1-1.1,2.2-1.7,3.4c-0.6,1.2-1.2,2.4-1.8,3.7c-0.6,1.3-1.2,2.5-1.7,3.8
				c1.4-0.8,2.7-1.6,3.8-2.3s2-1.5,2.9-2.3c0.9-0.8,1.6-1.6,2.3-2.4c0.7-0.8,1.4-1.7,2-2.7l0.9,0.7c-0.6,1-1.3,2-2,2.8
				c-0.7,0.9-1.6,1.7-2.6,2.6s-2.1,1.7-3.4,2.6c-1.3,0.9-2.9,1.9-4.7,3c-1.5,3.6-2.9,6.6-4.3,9s-2.7,4.3-3.9,5.7
				c-1.2,1.4-2.4,2.4-3.4,2.9c-1.1,0.6-2,0.8-2.8,0.8c-0.3,0-0.7,0-1.1-0.1s-0.8-0.3-1.1-0.5c-0.3-0.2-0.6-0.6-0.9-1
				c-0.2-0.4-0.3-1-0.3-1.7c0-1.3,0.4-2.6,1-3.9c0.7-1.3,1.7-2.6,3-3.8c1.3-1.3,2.9-2.5,4.9-3.8c1.9-1.2,4.1-2.5,6.5-3.8
				c0.3-0.7,0.6-1.3,0.8-1.9C116.7,31.6,116.9,31,117.1,30.5z M103.6,51.5c0.6,0,1.2-0.2,1.9-0.7c0.6-0.4,1.3-1,1.9-1.8
				c0.7-0.8,1.3-1.6,1.9-2.6c0.6-1,1.3-2.1,1.9-3.2c0.6-1.1,1.2-2.3,1.8-3.5c0.6-1.2,1.1-2.4,1.6-3.5c-2.3,1.2-4.3,2.5-6,3.8
				s-3,2.6-4,3.8c-1,1.2-1.8,2.3-2.3,3.3c-0.5,1-0.7,1.7-0.7,2.2c0,0.6,0.1,1.2,0.4,1.6C102.3,51.3,102.8,51.5,103.6,51.5z
				 M118.3,28c0.4-0.8,0.8-1.6,1.3-2.4c0.4-0.8,0.8-1.5,1.3-2.3c0.4-0.8,0.9-1.6,1.4-2.4c0.5-0.8,1.1-1.7,1.7-2.5
				c0-0.2-0.1-0.5-0.2-0.7s-0.3-0.5-0.5-0.7c-0.2-0.2-0.5-0.4-0.8-0.5c-0.3-0.1-0.7-0.2-1.2-0.2c-0.5,0-1.1,0.1-1.8,0.2
				c-0.7,0.1-1.4,0.4-2.1,0.7c-0.8,0.3-1.5,0.8-2.3,1.4c-0.8,0.6-1.5,1.3-2.3,2.2c-1.1,1.3-1.9,2.6-2.5,3.8
				c-0.6,1.3-0.9,2.4-0.9,3.5c0,1,0.3,1.8,0.8,2.3c0.5,0.5,1.2,0.8,2.1,0.8c0.9,0,1.9-0.3,3-0.9C116.3,29.7,117.3,28.9,118.3,28z"/>
			<path class="st1" d="M136.2,15.3c-0.2,0.4-0.5,0.9-0.9,1.6c-0.4,0.7-0.8,1.4-1.2,2.2c-0.4,0.8-0.9,1.6-1.3,2.5
				c-0.4,0.9-0.8,1.7-1.2,2.5c-0.4,0.8-0.6,1.6-0.9,2.3c-0.2,0.7-0.3,1.3-0.3,1.8c0,0.5,0.1,0.8,0.3,0.9c0.2,0.2,0.5,0.2,0.8,0.2
				c0.6,0,1.3-0.2,1.9-0.6c0.6-0.4,1.2-1,1.8-1.7c0.6-0.7,1.2-1.5,1.8-2.3c0.6-0.9,1.2-1.8,1.7-2.6l0.8,0.7c-0.5,0.8-1,1.7-1.5,2.6
				c-0.6,0.9-1.2,1.8-1.9,2.6c-0.7,0.8-1.5,1.4-2.3,2c-0.8,0.5-1.8,0.8-2.8,0.8c-0.9,0-1.7-0.3-2.2-0.8c-0.5-0.6-0.7-1.3-0.7-2.2
				c0-1,0.2-2.1,0.7-3.3c0.5-1.1,1.1-2.3,1.8-3.4c0.7-1.1,1.5-2.2,2.4-3.2s1.6-2,2.4-2.8L136.2,15.3z M140.6,10.1
				c0,0.3-0.1,0.6-0.2,1c-0.2,0.3-0.4,0.6-0.6,0.9c-0.2,0.3-0.5,0.5-0.8,0.7c-0.3,0.2-0.6,0.3-0.9,0.3c-0.3,0-0.5-0.1-0.6-0.3
				c-0.1-0.2-0.2-0.4-0.2-0.7c0-0.2,0-0.5,0.1-0.9c0.1-0.3,0.2-0.7,0.4-1c0.2-0.3,0.4-0.6,0.7-0.8s0.6-0.3,0.9-0.3
				c0.3,0,0.6,0.1,0.8,0.4S140.6,9.8,140.6,10.1z"/>
			<path class="st1" d="M145.8,13.4c-0.1,0.2-0.2,0.4-0.4,0.6s-0.2,0.5-0.3,0.7s-0.1,0.6-0.1,1c0,0.3,0.1,0.8,0.2,1.3
				c0.2,0.6,0.3,1.2,0.5,1.9c0.2,0.7,0.4,1.5,0.5,2.4c0.2,0.9,0.2,1.7,0.2,2.6c0,1.3-0.2,2.5-0.5,3.5c-0.4,1-0.8,1.9-1.4,2.6
				c1.2-0.7,2.4-1.6,3.6-2.8c1.2-1.2,2.7-2.9,3.9-4.8l0.4,0.9c-0.7,1.1-1.4,2.2-2.3,3.3s-1.8,2.1-2.8,2.9c-1,0.9-2.1,1.6-3.3,2.1
				c-1.2,0.5-2.4,0.8-3.7,0.8c-1.2,0-2.2-0.3-3-0.8c-0.8-0.6-1.3-1.4-1.5-2.5l0.8-0.2c0,0.1,0,0.2,0.1,0.5c0.1,0.2,0.2,0.4,0.4,0.6
				s0.4,0.4,0.8,0.5c0.3,0.2,0.7,0.2,1.2,0.2c0.6,0,1.2-0.1,1.7-0.4c0.5-0.3,0.9-0.7,1.3-1.1c0.4-0.5,0.7-1,0.9-1.6
				c0.3-0.6,0.5-1.2,0.6-1.9c0.1-0.6,0.3-1.3,0.3-1.9s0.1-1.2,0.1-1.7c0-0.5,0-1.1-0.1-1.7c0-0.6-0.1-1.2-0.1-1.7s-0.1-1-0.1-1.5
				c0-0.4-0.1-0.7-0.1-0.8v0c-0.2,0.2-0.4,0.5-0.7,1c-0.3,0.4-0.6,0.9-0.9,1.4c-0.3,0.5-0.6,1-1,1.5c-0.3,0.5-0.6,1-0.9,1.4
				c-0.3,0.4-0.5,0.8-0.6,1c-0.2,0.3-0.2,0.4-0.2,0.4l-0.8-0.7c0,0,0.2-0.4,0.6-1c0.4-0.7,0.9-1.5,1.5-2.5c0.6-1,1.3-2.1,2.1-3.3
				c0.8-1.2,1.6-2.4,2.4-3.6l0.9,0.8C146,13.1,145.9,13.3,145.8,13.4z"/>
			<path class="st1" d="M156.5,12c0.2-0.3,0.4-0.7,0.8-1.4c0.4-0.7,0.9-1.4,1.4-2.2c0.5-0.8,1.1-1.6,1.8-2.4c0.6-0.8,1.3-1.5,1.9-2
				l1.1,0.6c-0.7,1.1-1.4,2.3-2.1,3.5c-0.7,1.2-1.4,2.5-2.1,3.9l7.6,0l-0.5,1.2l-7.8,0c-0.7,1.4-1.4,2.8-2,4.2
				c-0.6,1.4-1.2,2.7-1.6,4c-0.5,1.3-0.8,2.4-1.1,3.5c-0.3,1.1-0.4,2.1-0.4,2.9c0,1,0.2,1.7,0.7,2.2c0.5,0.4,1,0.7,1.7,0.7
				c0.6,0,1.2-0.2,1.9-0.5c0.6-0.4,1.3-0.8,1.9-1.4c0.6-0.6,1.2-1.2,1.8-1.8c0.6-0.7,1-1.3,1.5-1.9c0.4-0.6,0.9-1.2,1.3-1.6
				c0.5-0.6,2.3-2.4,2.4-2.5l0.5,0.7c-0.5,0.9-2.9,3.5-3.6,4.6s-1.5,2-2.3,2.8c-0.8,0.9-1.7,1.6-2.7,2.2c-1,0.6-2,0.9-3.2,0.9
				c-0.7,0-1.3-0.1-1.8-0.4c-0.5-0.2-1-0.6-1.3-1c-0.4-0.4-0.6-1-0.8-1.6s-0.3-1.3-0.3-2c0-0.5,0.1-1.1,0.2-2s0.4-1.9,0.8-3.1
				c0.4-1.2,0.8-2.5,1.4-4c0.6-1.5,1.4-3,2.3-4.7l-3.9,0l0.5-1.2L156.5,12z"/>
		</g>
	</g>
</g>
<g class="st2">
</g>
</svg>
