<?xml version="1.0" encoding="utf-8"?>
<!-- Generator: Adobe Illustrator 20.1.0, SVG Export Plug-In . SVG Version: 6.00 Build 0)  -->
<svg version="1.1" id="Arrow_1_" xmlns="http://www.w3.org/2000/svg" xmlns:xlink="http://www.w3.org/1999/xlink" x="0px" y="0px"
	 viewBox="0 0 500 316.4" style="enable-background:new 0 0 500 316.4;" xml:space="preserve">
<style type="text/css">
	.st0{fill:#A0E4B5;}
</style>
<path class="st0" d="M499.1,10.7c0.2-0.4,0.4-0.8,0.5-1.3c0.1-0.3,0.2-0.7,0.2-1.1c0.1-0.5,0.1-1,0.1-1.5c0-0.2,0.1-0.4,0.1-0.6
	c0-0.1-0.2-0.3-0.2-0.4c-0.1-0.5-0.3-0.9-0.5-1.4c-0.2-0.3-0.3-0.7-0.5-1c-0.1-0.2-0.1-0.3-0.2-0.4c-0.2-0.2-0.4-0.4-0.6-0.6
	c-0.3-0.3-0.5-0.6-0.9-0.8c-0.4-0.3-0.8-0.5-1.2-0.7c-0.3-0.2-0.6-0.3-1-0.5c-0.5-0.2-1-0.2-1.5-0.3c-0.3,0-0.5-0.1-0.8-0.1l0,0
	L7.4,0.7c-2.9,0-5.5,1.6-6.7,4.2s-0.8,5.6,1,7.9l85.5,103.9l-10,96.3c-0.3,2.6,0.8,5.2,2.9,6.7c1.3,1,2.8,1.5,4.4,1.5
	c0.9,0,1.9-0.2,2.9-0.6l59.3-25.1l73.7,117.4c1.2,2,3.3,3.2,5.7,3.4c0.2,0,0.4,0.1,0.6,0.1c2.1,0,4.1-0.9,5.6-2.5l266-301.8
	c0.1-0.1,0.2-0.3,0.3-0.4C498.7,11.4,498.9,11,499.1,10.7z M128,147.2c-1.8,0.3-3.6,1.3-4.8,2.9l-28.6,38.8l7.1-68.7l276.1-74.4
	L128,147.2z M436.3,14.7L97.5,106L23.1,15.5L436.3,14.7z M107.7,195.9l21.2-28.7l9.8,15.6L107.7,195.9z M227.6,296.6l-87-138.6
	L466.3,25.9L227.6,296.6z"/>
</svg>
