<svg id="Arrow_1_" xmlns="http://www.w3.org/2000/svg" viewBox="0 0 500 316.4"><style>.st0{fill:#a0e4b5}</style><path class="st0" d="M499.1 10.7c.2-.4.4-.8.5-1.3.1-.3.2-.7.2-1.1.1-.5.1-1 .1-1.5 0-.2.1-.4.1-.6 0-.1-.2-.3-.2-.4-.1-.5-.3-.9-.5-1.4-.2-.3-.3-.7-.5-1-.1-.2-.1-.3-.2-.4l-.6-.6c-.3-.3-.5-.6-.9-.8-.4-.3-.8-.5-1.2-.7-.3-.2-.6-.3-1-.5-.5-.2-1-.2-1.5-.3-.3 0-.5-.1-.8-.1L7.4.7C4.5.7 1.9 2.3.7 4.9s-.8 5.6 1 7.9l85.5 103.9-10 96.3c-.3 2.6.8 5.2 2.9 6.7 1.3 1 2.8 1.5 4.4 1.5.9 0 1.9-.2 2.9-.6l59.3-25.1 73.7 117.4c1.2 2 3.3 3.2 5.7 3.4.2 0 .4.1.6.1 2.1 0 4.1-.9 5.6-2.5l266-301.8c.1-.1.2-.3.3-.4.1-.3.3-.7.5-1zM128 147.2c-1.8.3-3.6 1.3-4.8 2.9l-28.6 38.8 7.1-68.7 276.1-74.4L128 147.2zM436.3 14.7L97.5 106 23.1 15.5l413.2-.8zM107.7 195.9l21.2-28.7 9.8 15.6-31 13.1zm119.9 100.7l-87-138.6L466.3 25.9 227.6 296.6z"/></svg>