<svg id="Calque_1" xmlns="http://www.w3.org/2000/svg"><style>.st0{fill:none;stroke:#fff;stroke-miterlimit:10}.st1{fill:#fff}.st2{display:none}</style><path class="st0" d="M77.3 34.6l86.7-12c1.4-.2 2.7.2 3.7 1.1 3.6 3.2 12.6 10.6 17.9 9.6 6.8-1.4 26.2-5.5 26.2-5.5"/><path class="st0" d="M77.8 34.7l86.3-12.4c1.5-.2 2.8-1.1 3.5-2.5 2.2-4.5 7.8-14.8 13.1-15.2C187.6 4 204.6.5 204.6.5m-38.9 21.7l40-7.6"/><path class="st1" d="M21 10.8l-5.3 10.7c.9-1.2 1.9-2.3 3-3.4 1-1 2.1-1.9 3.2-2.5.8-.5 1.5-.8 2.1-1 .6-.2 1.2-.3 1.7-.3s1 .1 1.3.3c.3.2.6.4.8.7.2.3.3.6.4.9.1.3.1.7.1 1 0 .7-.1 1.5-.4 2.2l-.9 2.1-1.2 2.1c-.4.7-.8 1.3-1.2 2-.4.6-.7 1.3-.9 1.9-.3.6-.4 1.2-.4 1.8 0 .3 0 .5.1.7.1.2.2.3.3.4.1.1.2.2.4.2h.4c.3 0 .6-.1 1-.4.4-.3.8-.6 1.3-1.1.5-.4.9-1 1.4-1.5.5-.6.9-1.2 1.4-1.8.4-.6.9-1.2 1.3-1.8.4-.6.7-1.1 1-1.6l.9.7c-.2.3-.4.8-.8 1.4-.3.6-.7 1.2-1.2 1.8-.5.6-1 1.3-1.5 1.9s-1.1 1.2-1.7 1.8c-.6.5-1.2 1-1.8 1.3-.6.3-1.2.5-1.8.5-.4 0-.8-.1-1.2-.2-.4-.1-.7-.3-1-.6-.3-.3-.5-.6-.7-1-.2-.4-.3-.9-.3-1.5 0-.7.1-1.4.4-2.3s.8-1.9 1.6-3c.6-.9 1.2-1.7 1.7-2.3.5-.6.9-1.2 1.2-1.6.3-.5.5-.9.7-1.3s.2-.8.2-1.3c0-.4-.1-.7-.4-.9-.2-.2-.5-.3-.8-.3-.8 0-1.6.2-2.5.7-.8.5-1.7 1-2.5 1.8-.8.7-1.6 1.6-2.4 2.5s-1.6 1.9-2.3 2.9c-.7 1-1.4 2-2 2.9-.6 1-1.1 1.8-1.6 2.6-.4.8-.8 1.4-1 1.8s-.4.7-.4.7c-.7 1.3-1.3 2.6-1.9 3.9-.6 1.3-1.2 2.4-1.8 3.6-.6 1.1-1.1 2.2-1.5 3.1-.5.9-.9 1.7-1.2 2.4-.3.7-.6 1.2-.8 1.6l-.3.6-2.6-1.5c1.3-2.4 2.4-4.6 3.5-6.6 1-2 2-3.8 3-5.5.9-1.7 1.9-3.4 2.8-5 .9-1.6 1.9-3.3 2.9-5.1 1-1.8 2.1-3.7 3.3-5.7s2.6-4.3 4.1-6.9l.8.5z"/><path class="st1" d="M50.5 15.7c-.2.4-.5.9-.9 1.6s-.8 1.4-1.2 2.2c-.4.8-.8 1.6-1.3 2.5-.4.9-.8 1.7-1.2 2.5-.4.8-.6 1.6-.9 2.3-.2.7-.3 1.3-.3 1.8s.1.8.3 1c.2.1.4.2.8.2.5 0 .9-.1 1.4-.4.5-.3.9-.6 1.4-1s.9-.9 1.3-1.4c.4-.5.8-1.1 1.2-1.6.4-.5.7-1.1 1-1.5.3-.5.6-.9.8-1.3l.8.7c-.3.5-.6 1-.9 1.6-.4.6-.8 1.2-1.2 1.7-.4.6-.9 1.2-1.4 1.7-.5.5-1 1-1.6 1.5-.6.4-1.1.8-1.7 1-.6.2-1.2.4-1.9.4-.9 0-1.6-.3-2.1-.8-.4-.6-.7-1.3-.7-2.2v-.4c0-.2 0-.4.1-.5-.8 1-1.5 1.8-2.2 2.4-.7.6-1.4 1.1-2.1 1.5-.7.4-1.3.6-1.9.8-.6.1-1.2.2-1.8.2-.6 0-1.2-.1-1.7-.3-.5-.2-1-.5-1.4-.9-.4-.4-.7-.8-.9-1.4s-.3-1.2-.3-1.9c0-.9.2-1.9.6-3.1.4-1.1 1.1-2.4 2.1-3.7.9-1.1 1.8-2.1 2.7-2.9.9-.8 1.8-1.4 2.7-1.9.9-.5 1.8-.8 2.6-1 .8-.2 1.5-.3 2.2-.3 1.4 0 2.5.2 3.3.7.7.5 1.2 1.2 1.3 2.2.3-.4.6-.8 1-1.2.3-.4.7-.8 1.1-1.2l.9.4zm-7.2 8.9c.2-.3.5-.7.8-1.3.3-.5.6-1 .9-1.6.3-.5.6-1.1 1-1.6.3-.5.6-.9.8-1.3 0-.1 0-.4-.1-.7s-.1-.6-.3-.9c-.2-.3-.4-.6-.8-.8-.4-.2-.9-.4-1.6-.4-.5 0-1 .1-1.6.2-.6.1-1.2.4-1.9.7-.7.4-1.4.8-2.1 1.4-.7.6-1.4 1.3-2.2 2.2-1.1 1.3-1.9 2.6-2.5 3.9-.6 1.3-.9 2.5-.9 3.5 0 .9.2 1.6.6 2.1s1 .7 1.7.7c.9 0 1.7-.2 2.4-.6.8-.4 1.5-.9 2.1-1.5.7-.6 1.3-1.3 1.9-2 .7-.6 1.2-1.3 1.8-2z"/><path class="st1" d="M63.5 26.1c-.6.7-1.2 1.3-1.9 1.9-.6.6-1.2 1.1-1.9 1.5s-1.2.8-1.8 1c-.6.2-1.2.4-1.7.4-.6 0-1.2-.1-1.7-.3-.5-.2-.9-.6-1.3-1s-.6-.9-.8-1.5-.3-1.2-.3-1.9c0-.9.2-1.9.6-2.9.4-1 .9-2 1.5-3s1.3-1.9 2.1-2.7c.8-.9 1.5-1.6 2.2-2.2l1 .7c-.2.3-.4.6-.8 1.1-.3.5-.7 1-1.1 1.6-.4.6-.8 1.3-1.1 2-.4.7-.7 1.5-1 2.2s-.6 1.5-.8 2.2c-.2.8-.3 1.5-.3 2.1 0 .3 0 .6.1.9.1.3.1.5.3.8.1.2.3.4.5.5.2.1.5.2.8.2.5 0 1.1-.2 1.8-.5.6-.3 1.3-.8 2-1.4.7-.6 1.4-1.3 2.1-2 .7-.8 1.4-1.6 2.1-2.5.7-.9 1.4-1.8 2-2.8.7-.9 1.3-1.9 1.8-2.8.5-.8 1-1.7 1.5-2.5s1-1.7 1.5-2.4l1.1.6s-.2.3-.4.9c-.3.6-.6 1.3-1.1 2.2-.5.9-1 2-1.6 3.3-.6 1.2-1.2 2.6-1.9 4s-1.4 2.8-2.1 4.3c-.7 1.5-1.4 2.9-2 4.3 2.2-1.2 4.2-2.7 6-4.3 1.8-1.7 3.3-3.4 4.6-5.2l.9.7c-1.4 2.1-3.1 4-5.1 5.7s-4.4 3.4-7.3 5c-1.3 2.8-2.6 5.3-3.8 7.6-1.2 2.3-2.5 4.3-3.7 5.9-1.2 1.6-2.5 2.9-3.7 3.8-1.2.9-2.5 1.3-3.8 1.3-.8 0-1.5-.3-2.1-.8-.6-.6-.8-1.4-.8-2.4 0-.9.2-1.8.6-2.7.4-.9.9-1.8 1.6-2.8.7-.9 1.5-1.9 2.5-2.8s2-1.8 3.1-2.6 2.3-1.6 3.5-2.4c1.2-.8 2.5-1.5 3.7-2.1.3-.7.7-1.4 1.1-2.2.4-.8.7-1.5 1.1-2.2.4-.7.7-1.4 1-2 .6-.9.9-1.4 1.2-1.8zm-5.2 10.2c-1.8 1.1-3.5 2.3-5 3.5-1.5 1.3-2.9 2.5-4 3.7-1.1 1.2-2 2.4-2.7 3.5-.6 1.1-1 2-1 2.7 0 .5.1.9.4 1.2.3.3.7.4 1.1.4.6 0 1.2-.2 1.9-.6.6-.4 1.3-1 1.9-1.7.6-.7 1.3-1.6 1.9-2.5.6-1 1.3-2 1.9-3.1.6-1.1 1.2-2.3 1.8-3.5.7-1.2 1.3-2.4 1.8-3.6z"/><path class="st1" d="M81.1 13.4c-.1.2-.2.4-.4.6-.1.2-.2.5-.3.7s-.1.6-.1 1c0 .3.1.8.2 1.3.2.6.3 1.2.5 1.9s.4 1.5.5 2.4c.2.9.2 1.7.2 2.6 0 1.3-.2 2.5-.5 3.5s-.8 1.9-1.4 2.6c1.2-.7 2.4-1.6 3.6-2.8 1.2-1.2 2.4-2.8 3.5-4.7l.8.7c-.7 1.1-1.4 2.2-2.3 3.3s-1.8 2.1-2.8 2.9c-1 .9-2.1 1.6-3.3 2.1-1.2.5-2.4.8-3.7.8-1.2 0-2.2-.3-3-.8-.8-.6-1.3-1.4-1.5-2.5l.8-.2c0 .1 0 .2.1.5.1.2.2.4.4.6.2.2.4.4.8.5.3.2.7.2 1.2.2.6 0 1.2-.1 1.7-.4.5-.3.9-.7 1.3-1.1.4-.5.7-1 .9-1.6.3-.6.5-1.2.6-1.9.1-.6.3-1.3.3-1.9s.1-1.2.1-1.7 0-1.1-.1-1.7c0-.6-.1-1.2-.1-1.7s-.1-1-.1-1.5c0-.4-.1-.7-.1-.8-.2.2-.4.5-.7 1-.3.4-.6.9-.9 1.4-.3.5-.6 1-1 1.5-.3.5-.6 1-.9 1.4-.3.4-.5.8-.6 1l-.2.4-.8-.7s.2-.4.6-1c.4-.7.9-1.5 1.5-2.5s1.3-2.1 2.1-3.3l2.4-3.6.9.8c0 .3-.1.5-.2.7z"/><path class="st1" d="M105.6 15.7c-.2.4-.5.9-.9 1.6-.4.7-.8 1.4-1.2 2.2-.4.8-.8 1.6-1.3 2.5-.4.9-.8 1.7-1.2 2.5-.4.8-.6 1.6-.9 2.3s-.3 1.3-.3 1.8.1.8.3 1c.2.1.4.2.8.2.5 0 .9-.1 1.4-.4.5-.3.9-.6 1.4-1 .5-.4.9-.9 1.3-1.4.4-.5.8-1.1 1.2-1.6.4-.5.7-1.1 1-1.5.3-.5.6-.9.8-1.3l.8.7c-.3.5-.6 1-.9 1.6-.4.6-.8 1.2-1.2 1.7-.4.6-.9 1.2-1.4 1.7-.5.5-1 1-1.6 1.5-.6.4-1.1.8-1.7 1-.6.2-1.2.4-1.9.4-.9 0-1.6-.3-2.1-.8-.4-.6-.7-1.3-.7-2.2v-.4c0-.2 0-.4.1-.5-.8 1-1.5 1.8-2.2 2.4-.7.6-1.4 1.1-2.1 1.5-.7.4-1.3.6-1.9.8-.6.1-1.2.2-1.8.2-.6 0-1.2-.1-1.7-.3-.5-.2-1-.5-1.4-.9-.4-.4-.7-.8-.9-1.4-.2-.5-.3-1.2-.3-1.9 0-.9.2-1.9.6-3.1.4-1.1 1.1-2.4 2.1-3.7.9-1.1 1.8-2.1 2.7-2.9.9-.8 1.8-1.4 2.7-1.9.9-.5 1.8-.8 2.6-1 .8-.2 1.5-.3 2.2-.3 1.4 0 2.5.2 3.3.7.7.5 1.2 1.2 1.3 2.2.3-.4.6-.8 1-1.2.3-.4.7-.8 1.1-1.2l.9.4zm-7.2 8.9c.2-.3.5-.7.8-1.3.3-.5.6-1 .9-1.6.3-.5.6-1.1 1-1.6.3-.5.6-.9.8-1.3 0-.1 0-.4-.1-.7 0-.3-.1-.6-.3-.9-.2-.3-.4-.6-.8-.8-.4-.2-.9-.4-1.6-.4-.5 0-1 .1-1.6.2-.6.1-1.2.4-1.9.7-.7.4-1.4.8-2.1 1.4-.7.6-1.4 1.3-2.2 2.2-1.1 1.3-1.9 2.6-2.5 3.9-.6 1.3-.9 2.5-.9 3.5 0 .9.2 1.6.6 2.1.4.5 1 .7 1.7.7.9 0 1.7-.2 2.4-.6.8-.4 1.5-.9 2.1-1.5.7-.6 1.3-1.3 1.9-2 .7-.5 1.3-1.2 1.8-2z"/><path class="st1" d="M117.1 30.5c-.8.5-1.7 1-2.5 1.3-.9.3-1.7.5-2.5.5-.6 0-1.2-.1-1.8-.3-.6-.2-1.1-.5-1.6-.9s-.9-.9-1.2-1.6c-.3-.7-.5-1.5-.5-2.4 0-1.2.2-2.3.6-3.4s1-2.1 1.7-3c.7-.9 1.5-1.8 2.4-2.5.9-.8 1.8-1.4 2.8-2 1-.5 1.9-1 2.9-1.3 1-.3 1.8-.4 2.6-.4s1.4.1 2 .2c.5.2 1 .4 1.4.6.4.2.7.5.9.8.2.3.4.5.5.8l1.3-1.7.8.5s-.1.3-.4.7c-.2.5-.6 1.1-1 1.9-.4.8-.9 1.7-1.4 2.8-.5 1.1-1.1 2.2-1.7 3.4-.6 1.2-1.2 2.4-1.8 3.7-.6 1.3-1.2 2.5-1.7 3.8 1.4-.8 2.7-1.6 3.8-2.3s2-1.5 2.9-2.3c.9-.8 1.6-1.6 2.3-2.4.7-.8 1.4-1.7 2-2.7l.9.7c-.6 1-1.3 2-2 2.8-.7.9-1.6 1.7-2.6 2.6s-2.1 1.7-3.4 2.6c-1.3.9-2.9 1.9-4.7 3-1.5 3.6-2.9 6.6-4.3 9s-2.7 4.3-3.9 5.7c-1.2 1.4-2.4 2.4-3.4 2.9-1.1.6-2 .8-2.8.8-.3 0-.7 0-1.1-.1s-.8-.3-1.1-.5c-.3-.2-.6-.6-.9-1-.2-.4-.3-1-.3-1.7 0-1.3.4-2.6 1-3.9.7-1.3 1.7-2.6 3-3.8 1.3-1.3 2.9-2.5 4.9-3.8 1.9-1.2 4.1-2.5 6.5-3.8.3-.7.6-1.3.8-1.9.2-.3.4-.9.6-1.4zm-13.5 21c.6 0 1.2-.2 1.9-.7.6-.4 1.3-1 1.9-1.8.7-.8 1.3-1.6 1.9-2.6.6-1 1.3-2.1 1.9-3.2.6-1.1 1.2-2.3 1.8-3.5.6-1.2 1.1-2.4 1.6-3.5-2.3 1.2-4.3 2.5-6 3.8s-3 2.6-4 3.8c-1 1.2-1.8 2.3-2.3 3.3-.5 1-.7 1.7-.7 2.2 0 .6.1 1.2.4 1.6.3.4.8.6 1.6.6zM118.3 28c.4-.8.8-1.6 1.3-2.4.4-.8.8-1.5 1.3-2.3.4-.8.9-1.6 1.4-2.4.5-.8 1.1-1.7 1.7-2.5 0-.2-.1-.5-.2-.7s-.3-.5-.5-.7c-.2-.2-.5-.4-.8-.5-.3-.1-.7-.2-1.2-.2s-1.1.1-1.8.2-1.4.4-2.1.7c-.8.3-1.5.8-2.3 1.4-.8.6-1.5 1.3-2.3 2.2-1.1 1.3-1.9 2.6-2.5 3.8-.6 1.3-.9 2.4-.9 3.5 0 1 .3 1.8.8 2.3.5.5 1.2.8 2.1.8.9 0 1.9-.3 3-.9 1-.6 2-1.4 3-2.3z"/><path class="st1" d="M136.2 15.3c-.2.4-.5.9-.9 1.6-.4.7-.8 1.4-1.2 2.2-.4.8-.9 1.6-1.3 2.5-.4.9-.8 1.7-1.2 2.5-.4.8-.6 1.6-.9 2.3-.2.7-.3 1.3-.3 1.8s.1.8.3.9c.2.2.5.2.8.2.6 0 1.3-.2 1.9-.6.6-.4 1.2-1 1.8-1.7.6-.7 1.2-1.5 1.8-2.3.6-.9 1.2-1.8 1.7-2.6l.8.7c-.5.8-1 1.7-1.5 2.6-.6.9-1.2 1.8-1.9 2.6s-1.5 1.4-2.3 2c-.8.5-1.8.8-2.8.8-.9 0-1.7-.3-2.2-.8-.5-.6-.7-1.3-.7-2.2 0-1 .2-2.1.7-3.3.5-1.1 1.1-2.3 1.8-3.4s1.5-2.2 2.4-3.2 1.6-2 2.4-2.8l.8.2zm4.4-5.2c0 .3-.1.6-.2 1l-.6.9c-.2.3-.5.5-.8.7-.3.2-.6.3-.9.3-.3 0-.5-.1-.6-.3-.1-.2-.2-.4-.2-.7 0-.2 0-.5.1-.9.1-.3.2-.7.4-1 .2-.3.4-.6.7-.8s.6-.3.9-.3c.3 0 .6.1.8.4s.4.4.4.7z"/><path class="st1" d="M145.8 13.4c-.1.2-.2.4-.4.6s-.2.5-.3.7-.1.6-.1 1c0 .3.1.8.2 1.3.2.6.3 1.2.5 1.9s.4 1.5.5 2.4c.2.9.2 1.7.2 2.6 0 1.3-.2 2.5-.5 3.5-.4 1-.8 1.9-1.4 2.6 1.2-.7 2.4-1.6 3.6-2.8 1.2-1.2 2.7-2.9 3.9-4.8l.4.9c-.7 1.1-1.4 2.2-2.3 3.3s-1.8 2.1-2.8 2.9c-1 .9-2.1 1.6-3.3 2.1-1.2.5-2.4.8-3.7.8-1.2 0-2.2-.3-3-.8-.8-.6-1.3-1.4-1.5-2.5l.8-.2c0 .1 0 .2.1.5.1.2.2.4.4.6s.4.4.8.5c.3.2.7.2 1.2.2.6 0 1.2-.1 1.7-.4.5-.3.9-.7 1.3-1.1.4-.5.7-1 .9-1.6.3-.6.5-1.2.6-1.9.1-.6.3-1.3.3-1.9s.1-1.2.1-1.7 0-1.1-.1-1.7c0-.6-.1-1.2-.1-1.7s-.1-1-.1-1.5c0-.4-.1-.7-.1-.8-.2.2-.4.5-.7 1-.3.4-.6.9-.9 1.4-.3.5-.6 1-1 1.5-.3.5-.6 1-.9 1.4-.3.4-.5.8-.6 1-.2.3-.2.4-.2.4l-.8-.7s.2-.4.6-1c.4-.7.9-1.5 1.5-2.5s1.3-2.1 2.1-3.3l2.4-3.6.9.8c0 .3-.1.5-.2.6z"/><path class="st1" d="M156.5 12c.2-.3.4-.7.8-1.4s.9-1.4 1.4-2.2c.5-.8 1.1-1.6 1.8-2.4.6-.8 1.3-1.5 1.9-2l1.1.6c-.7 1.1-1.4 2.3-2.1 3.5-.7 1.2-1.4 2.5-2.1 3.9h7.6l-.5 1.2h-7.8c-.7 1.4-1.4 2.8-2 4.2-.6 1.4-1.2 2.7-1.6 4-.5 1.3-.8 2.4-1.1 3.5-.3 1.1-.4 2.1-.4 2.9 0 1 .2 1.7.7 2.2.5.4 1 .7 1.7.7.6 0 1.2-.2 1.9-.5.6-.4 1.3-.8 1.9-1.4l1.8-1.8c.6-.7 1-1.3 1.5-1.9.4-.6.9-1.2 1.3-1.6.5-.6 2.3-2.4 2.4-2.5l.5.7c-.5.9-2.9 3.5-3.6 4.6s-1.5 2-2.3 2.8c-.8.9-1.7 1.6-2.7 2.2-1 .6-2 .9-3.2.9-.7 0-1.3-.1-1.8-.4-.5-.2-1-.6-1.3-1-.4-.4-.6-1-.8-1.6s-.3-1.3-.3-2c0-.5.1-1.1.2-2s.4-1.9.8-3.1c.4-1.2.8-2.5 1.4-4 .6-1.5 1.4-3 2.3-4.7H152l.5-1.2 4-.2z"/></svg>