<svg xmlns="http://www.w3.org/2000/svg" viewBox="-173 2837 24 24"><defs><style>.cls-1{fill:#a0e4b5;fill-rule:evenodd}</style></defs><g id="codepen" transform="translate(-173.393 2837)"><g id="Group" transform="translate(.393)"><g id="_0485-codepen-copy" data-name="0485-codepen-copy"><path id="Shape" class="cls-1" d="M24.037 7.6L12.837.134a.8.8 0 0 0-.888 0L.749 7.6a.8.8 0 0 0-.356.666v7.467a.8.8 0 0 0 .356.666l11.2 7.467a.8.8 0 0 0 .887 0l11.2-7.467a.8.8 0 0 0 .356-.666V8.267a.8.8 0 0 0-.356-.666zm-11.644 7.172L8.235 12l4.158-2.772L16.551 12l-4.158 2.772zm.8-6.934V2.295l8.958 5.972-4.158 2.772-4.8-3.2zm-1.6 0l-4.8 3.2-4.158-2.772 8.958-5.972v5.544zM5.351 12l-3.358 2.238V9.761L5.351 12zm1.442.962l4.8 3.2v5.544l-8.958-5.973 4.158-2.772zm6.4 3.2l4.8-3.2 4.158 2.772-8.958 5.972v-5.544zM19.435 12l3.358-2.238v4.477L19.435 12z" transform="translate(-.393)"/></g></g></g></svg>