<svg xmlns="http://www.w3.org/2000/svg" viewBox="-412 5418 94.912 70.017">
  <g id="logoBrahim" transform="translate(-412 5414)">
    <path id="s" class="logo" d="M32.044,30.139a10.307,10.307,0,0,0,3.8,2.847,11.864,11.864,0,0,0,4.746.949,9.1,9.1,0,0,0,4.356-1,11.665,11.665,0,0,0,3.3-2.648,18.641,18.641,0,0,0,2.506-3.711q1.072-2.079,2.022-4.262t1.9-4.262a24.724,24.724,0,0,1,1.984-3.711,10.383,10.383,0,0,1,2.411-2.629,5.049,5.049,0,0,1,3.113-1,4.015,4.015,0,0,1,2.041.56,5.429,5.429,0,0,1,1.689,1.557,8.058,8.058,0,0,1,1.148,2.411,10.6,10.6,0,0,1,.427,3.075,10.811,10.811,0,0,1-1.813,5.989,16.9,16.9,0,0,1-5.524,5.059l2.591,2.847a25.94,25.94,0,0,0,3.8-3.426,14.911,14.911,0,0,0,2.24-3.3,12.158,12.158,0,0,0,1.016-3.36,23.537,23.537,0,0,0,.275-3.711,17.2,17.2,0,0,0-.835-5.467,13.287,13.287,0,0,0-2.287-4.3A10.753,10.753,0,0,0,63.422,5.8a9.8,9.8,0,0,0-4.451-1.016,10.042,10.042,0,0,0-4.432.949,11.389,11.389,0,0,0-3.3,2.411,17.426,17.426,0,0,0-2.544,3.445q-1.091,1.9-2.041,3.91t-1.832,3.91a20.216,20.216,0,0,1-1.984,3.426,9.8,9.8,0,0,1-2.468,2.382,5.562,5.562,0,0,1-3.17.949,4.746,4.746,0,0,1-2.183-.56,6.065,6.065,0,0,1-1.9-1.538,7.9,7.9,0,0,1-1.291-2.392,8.7,8.7,0,0,1-.5-3,11.313,11.313,0,0,1,.427-3.17,10.07,10.07,0,0,1,1.338-2.847,15.746,15.746,0,0,1,2.335-2.686,33.267,33.267,0,0,1,3.464-2.752L35.964,4a20.2,20.2,0,0,0-3.8,3.654,17.16,17.16,0,0,0-2.24,3.74A15.366,15.366,0,0,0,28.855,15.1a23.862,23.862,0,0,0-.275,3.578,21.83,21.83,0,0,0,.949,6.691,13.743,13.743,0,0,0,2.515,4.765Z" transform="translate(-1.454)"/>
    <path id="bracket" class="logo" d="M93.013,31.318a15.537,15.537,0,0,1-4.186,8.428,10.659,10.659,0,0,1-7.593,3.331,24.164,24.164,0,0,1-3.407-.152q-1.4-.18-4.043-.807a39.578,39.578,0,0,0-4.6-.854,33.22,33.22,0,0,0-4.337-.18,15.043,15.043,0,0,0-10.2,4.167,26.471,26.471,0,0,0-6.872,11.294,26.12,26.12,0,0,0-7.156-11.019,14.816,14.816,0,0,0-10.241-3.853,27.646,27.646,0,0,0-3.293.209q-1.234.171-5.249,1.073-1.234.228-3.8.892a23.4,23.4,0,0,1-4.015.38,10.687,10.687,0,0,1-7.735-3.018,14.949,14.949,0,0,1-4.318-8.3H0a23.633,23.633,0,0,0,7.042,13.7A18.1,18.1,0,0,0,20.235,51.9a31.056,31.056,0,0,0,4.271-.332q1.8-.285,3.8-.788t4.11-1a19.732,19.732,0,0,1,4.119-.532,8.741,8.741,0,0,1,6.919,3.18,16.078,16.078,0,0,1,3.7,8.4H48.8a16.7,16.7,0,0,1,3.521-8.542,8.637,8.637,0,0,1,6.7-3.417,17.863,17.863,0,0,1,3.3.256q1.651.285,4.347.854,1.243.18,4.138.759a31.368,31.368,0,0,0,4.651.228A18.1,18.1,0,0,0,88.477,45.27a23.13,23.13,0,0,0,6.435-13.98Z" transform="translate(0 -1.389)"/>
    <path id="dot" class="logo" d="M50.2,70a3.635,3.635,0,0,0-3.721,3.645,3.4,3.4,0,0,0,3.645,3.721A3.8,3.8,0,0,0,54,73.569,3.683,3.683,0,0,0,50.2,70Z" transform="translate(-2.364 -3.358)"/>
  </g>
</svg>
