<svg xmlns="http://www.w3.org/2000/svg" viewBox="6790.958 6071.744 51.265 39.483">
  <defs>
    <style>
      .cls-1 {
        fill: #a0e4b5;
      }
    </style>
  </defs>
  <path id="plane" class="cls-1" d="M45.3.971a.457.457,0,0,0,.045-.118.326.326,0,0,0,.018-.1A.687.687,0,0,0,45.37.617c0-.018.009-.036.009-.054s-.018-.027-.018-.036A.712.712,0,0,0,45.315.4C45.3.372,45.288.336,45.27.309s-.009-.027-.018-.036L45.2.218a.313.313,0,0,0-.082-.073.678.678,0,0,0-.109-.064.843.843,0,0,0-.091-.045A.722.722,0,0,0,44.78.009c-.027,0-.045-.009-.073-.009h0L.67.064A.662.662,0,0,0,.062.445a.688.688,0,0,0,.091.717l7.76,9.43-.908,8.74a.656.656,0,0,0,.263.608.644.644,0,0,0,.4.136.719.719,0,0,0,.263-.054l5.382-2.278L20,28.4a.653.653,0,0,0,.517.309c.018,0,.036.009.054.009a.7.7,0,0,0,.508-.227L45.224,1.1c.009-.009.018-.027.027-.036A.423.423,0,0,1,45.3.971ZM11.616,13.36a.692.692,0,0,0-.436.263l-2.6,3.521.644-6.235L34.288,4.157ZM39.6,1.334,8.848,9.621,2.1,1.407ZM9.774,17.78l1.924-2.6.889,1.416Zm10.882,9.14L12.76,14.34,42.32,2.351Z" />
</svg>
