<?xml version="1.0" encoding="utf-8"?>
<!-- Generator: Adobe Illustrator 20.1.0, SVG Export Plug-In . SVG Version: 6.00 Build 0)  -->
<svg version="1.1" id="bird" xmlns="http://www.w3.org/2000/svg" xmlns:xlink="http://www.w3.org/1999/xlink" x="0px" y="0px"
	 viewBox="0 0 27.9 22.8" style="enable-background:new 0 0 27.9 22.8;" xml:space="preserve">
<style type="text/css">
	.st0{fill:none;stroke:#A0E4B5;stroke-width:0.4;stroke-miterlimit:10;}
</style>
<path id="body" class="st0" d="M8.4,17.5c-1.6,1.4-3.7,2.2-5.8,2.2c-0.4,0-0.7,0-1.1-0.1c2.1,1.5,4.6,2.3,7.1,2.3
	c7.3,0.1,13.2-6.3,13.2-14.2c0-0.1,0-0.1,0-0.2c0-0.2,0-0.4,0-0.7c0.9-0.7,1.7-1.6,2.3-2.6v0c-0.8,0.4-1.7,0.7-2.7,0.8
	c1-0.6,1.7-1.6,2-2.8c-0.9,0.6-1.9,1-3,1.2c-1.8-2-4.7-2.1-6.6-0.2c-1.2,1.2-1.7,3.1-1.3,4.8"/>
<path id="wings" class="st0" d="M12.7,8c0.2,1.8,10.3,7.4,13.6,6.4c-1.1,2.2-3.5,4-5.5,4c0.4,0.3,1.4,0.6,1.4,0.6
	c-1.7,1.7-4,2.3-5.3,1.6c0.2,0.5,0.5,0.9,0.9,1.1C16,22.9,8.6,23,8.4,17.5"/>
</svg>
