<svg id="bird" xmlns="http://www.w3.org/2000/svg" viewBox="0 0 25.93 21.12"><defs><style>.cls-1{fill:none;stroke:#a0e4b5;stroke-miterlimit:10;stroke-width:0.4px;}</style></defs><title>twitter1</title><path id="body" class="cls-1" d="M14.85,22.25a8.88,8.88,0,0,1-5.78,2.16A8.67,8.67,0,0,1,8,24.34a12.43,12.43,0,0,0,7.13,2.27c7.26.05,13.19-6.29,13.24-14.17q0-.1,0-.2,0-.33,0-.65A9.94,9.94,0,0,0,30.64,9h0a8.74,8.74,0,0,1-2.67.8A5,5,0,0,0,30,7a8.88,8.88,0,0,1-3,1.22A4.4,4.4,0,0,0,20.48,8a5.33,5.33,0,0,0-1.34,4.81" transform="translate(-7.19 -6.42)"/><path id="wings" class="cls-1" d="M19.14,12.81c.17,1.75,10.27,7.44,13.6,6.44-1.06,2.22-3.48,4-5.53,4a5.38,5.38,0,0,0,1.42.64c-1.72,1.67-4,2.35-5.34,1.61a2.07,2.07,0,0,0,.94,1.1c-1.77,1.13-9,1.84-9.38-4.33" transform="translate(-7.19 -6.42)"/></svg>